Coordinates
version=1
nRows=14
nColumns=24
inDegrees=yes

Units are S.I. units (second, meters, Newtons, ...)
Angles are in degrees.

endheader
time	pelvis_tilt	pelvis_list	pelvis_rotation	pelvis_tx	pelvis_ty	pelvis_tz	hip_flexion_r	hip_adduction_r	hip_rotation_r	knee_angle_r	ankle_angle_r	subtalar_angle_r	mtp_angle_r	hip_flexion_l	hip_adduction_l	hip_rotation_l	knee_angle_l	ankle_angle_l	subtalar_angle_l	mtp_angle_l	lumbar_extension	lumbar_bending	lumbar_rotation
      0.96166667	      6.61943030	     -2.88060464	      3.00388828	     -0.35602285	      1.02417724	      0.36343668	      0.04081543	      5.83042035	     -0.37878914	    -15.42938754	      8.98283348	    -12.43839158	     -3.52627047	      6.72270680	     -4.31363197	      1.22455823	    -65.88458858	     -0.52269790	    -11.30103155	     -1.27192044	    -19.90885228	     12.56272563	     -1.60847614
      0.96583333	      6.62251848	     -2.68177773	      2.87066658	     -0.35154620	      1.02501146	      0.36403279	     -0.46814226	      5.64060048	     -0.34100644	    -14.98152922	      8.99169220	    -12.28259494	     -3.51830342	      7.20830936	     -4.09768689	      1.10923675	    -65.47030539	      0.16852454	    -11.00810544	     -1.29484545	    -19.97999790	     12.25935056	     -1.43444324
      0.97000000	      6.64024004	     -2.48768688	      2.73999286	     -0.34707667	      1.02582998	      0.36461088	     -0.99282801	      5.45288273	     -0.31416420	    -14.52915324	      8.99851852	    -12.11413382	     -3.50730988	      7.66940010	     -3.88907845	      0.99704648	    -65.01424899	      0.83312556	    -10.70508165	     -1.31948489	    -20.06810840	     11.96094457	     -1.26039600
      0.97416667	      6.63937550	     -2.29607093	      2.61253617	     -0.34262510	      1.02656614	      0.36517139	     -1.48768313	      5.26424828	     -0.29404430	    -14.09314325	      9.00929321	    -11.93615709	     -3.49452387	      8.14694193	     -3.68009465	      0.89623016	    -64.52664631	      1.46349042	    -10.39645328	     -1.34049865	    -20.14346141	     11.66172855	     -1.10463977
      0.97833333	      6.63511780	     -2.09531048	      2.47681005	     -0.33815703	      1.02727482	      0.36570323	     -1.97182338	      5.05762482	     -0.30297946	    -13.66884453	      8.97951241	    -11.76041626	     -3.48482116	      8.61013752	     -3.45698504	      0.79054936	    -63.98593678	      2.05280308	    -10.12883312	     -1.35013783	    -20.18998643	     11.36653232	     -0.99549136
      0.98250000	      6.67337885	     -1.93640628	      2.36051689	     -0.33370810	      1.02796148	      0.36623545	     -2.51460095	      4.90332104	     -0.28874669	    -13.21468758	      9.04529603	    -11.55834596	     -3.46375181	      9.03163309	     -3.29471834	      0.69864297	    -63.43114293	      2.64491754	     -9.74379674	     -1.37346142	    -20.30261459	     11.11597271	     -0.79442849
      0.98666667	      6.69118071	     -1.75777953	      2.23666424	     -0.32925962	      1.02859081	      0.36673982	     -3.02103603	      4.71924092	     -0.30166813	    -12.78749099	      9.06452657	    -11.36034746	     -3.44033314	      9.46005307	     -3.10289235	      0.60691853	    -62.82706160	      3.17662544	     -9.42947007	     -1.39967270	    -20.38251021	     10.84071614	     -0.63892290
      0.99083333	      6.69568302	     -1.58580082	      2.11260682	     -0.32481334	      1.02914081	      0.36722822	     -3.50590537	      4.53915906	     -0.31913476	    -12.37445589	      9.09721543	    -11.14697662	     -3.41185805	      9.89584497	     -2.91587185	      0.52253590	    -62.19397186	      3.67412061	     -9.12070067	     -1.42798420	    -20.44699548	     10.57597330	     -0.49387470
      0.99500000	      6.69142711	     -1.42399602	      1.99617939	     -0.32036535	      1.02965088	      0.36768038	     -3.97797507	      4.36758475	     -0.34672894	    -11.96424639	      9.10263196	    -10.95538139	     -3.38823418	     10.33114348	     -2.73273925	      0.46103106	    -61.52205820	      4.12297105	     -8.82408219	     -1.44644814	    -20.49035564	     10.34827591	     -0.37731323
      0.99916667	      6.70361069	     -1.26974270	      1.88092128	     -0.31592504	      1.03010556	      0.36813659	     -4.46690121	      4.20395546	     -0.37718229	    -11.55593133	      9.15994894	    -10.72797562	     -3.35392289	     10.74470381	     -2.56754522	      0.39035795	    -60.82919422	      4.55037934	     -8.52362357	     -1.47231040	    -20.56692287	     10.09143044	     -0.23174499
      1.00333333	      6.72335462	     -1.11166346	      1.76358043	     -0.31148145	      1.03055967	      0.36855824	     -4.95927708	      4.03187004	     -0.41597984	    -11.15587099	      9.18585793	    -10.51334246	     -3.32071589	     11.13111762	     -2.38843359	      0.33638798	    -60.08454708	      4.92349796	     -8.25180641	     -1.49472881	    -20.63798906	      9.86470699	     -0.10756142
      1.00750000	      6.73702151	     -0.96948384	      1.65042933	     -0.30704475	      1.03093585	      0.36896884	     -5.44476745	      3.87655359	     -0.45257696	    -10.75400412	      9.23734888	    -10.28182676	     -3.28106995	     11.52141571	     -2.23026846	      0.28359509	    -59.32229698	      5.26647176	     -7.99784433	     -1.51940086	    -20.71284639	      9.63225250	      0.02684294
      1.01166667	      6.74858945	     -0.81933596	      1.53437280	     -0.30259808	      1.03127184	      0.36936298	     -5.92018997	      3.70876500	     -0.49829279	    -10.37199769	      9.29775251	    -10.04362174	     -3.23568480	     11.89688165	     -2.05714381	      0.24460502	    -58.51756239	      5.56103694	     -7.77705593	     -1.54597080	    -20.77873077	      9.40492759	      0.15432064
      1.01583333	      6.73990578	     -0.67691527	      1.41869087	     -0.29815305	      1.03153557	      0.36972567	     -6.36680889	      3.54624599	     -0.54341355	    -10.00081129	      9.32281796	     -9.83292798	     -3.20376675	     12.28476859	     -1.88862099	      0.21402798	    -57.68216639	      5.81689901	     -7.58083962	     -1.56058385	    -20.80975942	      9.20432124	      0.24601729
